<mxfile host="app.diagrams.net" modified="2022-12-15T06:16:51.463Z" agent="5.0 (Windows NT 10.0; Win64; x64) AppleWebKit/537.36 (KHTML, like Gecko) Chrome/108.0.0.0 Safari/537.36" version="20.6.0" etag="kRK3HpjoIRNumgluzaej" type="github">
  <diagram id="zmLa1dzplJ6J4wELi8iO" name="Page-1">
    <mxGraphModel dx="1781" dy="508" grid="1" gridSize="10" guides="1" tooltips="1" connect="1" arrows="1" fold="1" page="1" pageScale="1" pageWidth="850" pageHeight="1100" math="0" shadow="0">
      <root>
        <mxCell id="0" />
        <mxCell id="1" parent="0" />
        <mxCell id="m-OdGlbExxxFihAA-iWN-1" value="代理（Proxy）" style="rounded=1;whiteSpace=wrap;html=1;fontSize=16;" vertex="1" parent="1">
          <mxGeometry x="160" y="190" width="120" height="60" as="geometry" />
        </mxCell>
        <mxCell id="m-OdGlbExxxFihAA-iWN-2" value="Server1" style="rounded=1;whiteSpace=wrap;html=1;fontSize=20;dashed=1;" vertex="1" parent="1">
          <mxGeometry x="330" y="265" width="120" height="60" as="geometry" />
        </mxCell>
        <mxCell id="m-OdGlbExxxFihAA-iWN-28" style="edgeStyle=orthogonalEdgeStyle;rounded=0;orthogonalLoop=1;jettySize=auto;html=1;entryX=0.5;entryY=0;entryDx=0;entryDy=0;dashed=1;" edge="1" parent="1" source="m-OdGlbExxxFihAA-iWN-3" target="m-OdGlbExxxFihAA-iWN-2">
          <mxGeometry relative="1" as="geometry" />
        </mxCell>
        <mxCell id="m-OdGlbExxxFihAA-iWN-3" value="&lt;font style=&quot;font-size: 20px;&quot;&gt;Server1&lt;/font&gt;" style="rounded=1;whiteSpace=wrap;html=1;fillStyle=auto;gradientColor=none;gradientDirection=west;strokeColor=default;sketch=0;glass=0;shadow=0;fillColor=#FFFFFF;" vertex="1" parent="1">
          <mxGeometry x="330" y="90" width="120" height="60" as="geometry" />
        </mxCell>
        <mxCell id="m-OdGlbExxxFihAA-iWN-5" value="Server2" style="rounded=1;whiteSpace=wrap;html=1;fontSize=20;fillStyle=auto;fillColor=#FFFFFF;dashed=1;" vertex="1" parent="1">
          <mxGeometry x="496" y="265" width="120" height="60" as="geometry" />
        </mxCell>
        <mxCell id="m-OdGlbExxxFihAA-iWN-30" value="" style="edgeStyle=orthogonalEdgeStyle;rounded=0;orthogonalLoop=1;jettySize=auto;html=1;dashed=1;" edge="1" parent="1" source="m-OdGlbExxxFihAA-iWN-6" target="m-OdGlbExxxFihAA-iWN-5">
          <mxGeometry relative="1" as="geometry" />
        </mxCell>
        <mxCell id="m-OdGlbExxxFihAA-iWN-6" value="&lt;font style=&quot;font-size: 20px;&quot;&gt;Server2&lt;/font&gt;" style="rounded=1;whiteSpace=wrap;html=1;" vertex="1" parent="1">
          <mxGeometry x="496" y="90" width="120" height="60" as="geometry" />
        </mxCell>
        <mxCell id="m-OdGlbExxxFihAA-iWN-9" value="Server3" style="rounded=1;whiteSpace=wrap;html=1;fontSize=20;" vertex="1" parent="1">
          <mxGeometry x="663" y="90" width="120" height="60" as="geometry" />
        </mxCell>
        <mxCell id="m-OdGlbExxxFihAA-iWN-11" value="客户端" style="ellipse;whiteSpace=wrap;html=1;aspect=fixed;" vertex="1" parent="1">
          <mxGeometry x="-50" y="105" width="80" height="80" as="geometry" />
        </mxCell>
        <mxCell id="m-OdGlbExxxFihAA-iWN-12" value="客户端" style="ellipse;whiteSpace=wrap;html=1;aspect=fixed;" vertex="1" parent="1">
          <mxGeometry x="-30" y="155" width="80" height="80" as="geometry" />
        </mxCell>
        <mxCell id="m-OdGlbExxxFihAA-iWN-13" value="客户端" style="ellipse;whiteSpace=wrap;html=1;aspect=fixed;" vertex="1" parent="1">
          <mxGeometry x="-10" y="205" width="80" height="80" as="geometry" />
        </mxCell>
        <mxCell id="m-OdGlbExxxFihAA-iWN-14" value="客户端" style="ellipse;whiteSpace=wrap;html=1;aspect=fixed;" vertex="1" parent="1">
          <mxGeometry x="10" y="255" width="80" height="80" as="geometry" />
        </mxCell>
        <mxCell id="m-OdGlbExxxFihAA-iWN-15" value="" style="endArrow=classic;html=1;rounded=0;exitX=1;exitY=0;exitDx=0;exitDy=0;entryX=0;entryY=0.5;entryDx=0;entryDy=0;" edge="1" parent="1" source="m-OdGlbExxxFihAA-iWN-11" target="m-OdGlbExxxFihAA-iWN-1">
          <mxGeometry width="50" height="50" relative="1" as="geometry">
            <mxPoint x="400" y="320" as="sourcePoint" />
            <mxPoint x="450" y="270" as="targetPoint" />
          </mxGeometry>
        </mxCell>
        <mxCell id="m-OdGlbExxxFihAA-iWN-16" value="" style="endArrow=classic;html=1;rounded=0;exitX=1;exitY=0.5;exitDx=0;exitDy=0;entryX=0;entryY=0.5;entryDx=0;entryDy=0;" edge="1" parent="1" source="m-OdGlbExxxFihAA-iWN-12" target="m-OdGlbExxxFihAA-iWN-1">
          <mxGeometry width="50" height="50" relative="1" as="geometry">
            <mxPoint x="400" y="320" as="sourcePoint" />
            <mxPoint x="450" y="270" as="targetPoint" />
          </mxGeometry>
        </mxCell>
        <mxCell id="m-OdGlbExxxFihAA-iWN-17" value="" style="endArrow=classic;html=1;rounded=0;exitX=1;exitY=0.5;exitDx=0;exitDy=0;entryX=0;entryY=0.5;entryDx=0;entryDy=0;" edge="1" parent="1" source="m-OdGlbExxxFihAA-iWN-14" target="m-OdGlbExxxFihAA-iWN-1">
          <mxGeometry width="50" height="50" relative="1" as="geometry">
            <mxPoint x="400" y="320" as="sourcePoint" />
            <mxPoint x="450" y="270" as="targetPoint" />
          </mxGeometry>
        </mxCell>
        <mxCell id="m-OdGlbExxxFihAA-iWN-18" value="" style="endArrow=classic;html=1;rounded=0;entryX=0;entryY=0.5;entryDx=0;entryDy=0;exitX=1;exitY=0;exitDx=0;exitDy=0;" edge="1" parent="1" source="m-OdGlbExxxFihAA-iWN-13" target="m-OdGlbExxxFihAA-iWN-1">
          <mxGeometry width="50" height="50" relative="1" as="geometry">
            <mxPoint x="400" y="320" as="sourcePoint" />
            <mxPoint x="450" y="270" as="targetPoint" />
          </mxGeometry>
        </mxCell>
        <mxCell id="m-OdGlbExxxFihAA-iWN-19" value="" style="endArrow=classic;html=1;rounded=0;entryX=0;entryY=0.5;entryDx=0;entryDy=0;exitX=1;exitY=0.5;exitDx=0;exitDy=0;" edge="1" parent="1" source="m-OdGlbExxxFihAA-iWN-1" target="m-OdGlbExxxFihAA-iWN-3">
          <mxGeometry width="50" height="50" relative="1" as="geometry">
            <mxPoint x="400" y="320" as="sourcePoint" />
            <mxPoint x="450" y="270" as="targetPoint" />
          </mxGeometry>
        </mxCell>
        <mxCell id="m-OdGlbExxxFihAA-iWN-20" value="" style="endArrow=classic;html=1;rounded=0;fontSize=20;exitX=1;exitY=0.5;exitDx=0;exitDy=0;dashed=1;" edge="1" parent="1" source="m-OdGlbExxxFihAA-iWN-5">
          <mxGeometry width="50" height="50" relative="1" as="geometry">
            <mxPoint x="400" y="320" as="sourcePoint" />
            <mxPoint x="660" y="120" as="targetPoint" />
          </mxGeometry>
        </mxCell>
        <mxCell id="m-OdGlbExxxFihAA-iWN-21" value="" style="endArrow=classic;html=1;rounded=0;entryX=0;entryY=0.5;entryDx=0;entryDy=0;exitX=1;exitY=0.5;exitDx=0;exitDy=0;" edge="1" parent="1" source="m-OdGlbExxxFihAA-iWN-6" target="m-OdGlbExxxFihAA-iWN-9">
          <mxGeometry width="50" height="50" relative="1" as="geometry">
            <mxPoint x="400" y="320" as="sourcePoint" />
            <mxPoint x="450" y="270" as="targetPoint" />
          </mxGeometry>
        </mxCell>
        <mxCell id="m-OdGlbExxxFihAA-iWN-22" value="" style="endArrow=classic;html=1;rounded=0;entryX=0;entryY=0.5;entryDx=0;entryDy=0;exitX=1;exitY=0.5;exitDx=0;exitDy=0;" edge="1" parent="1" source="m-OdGlbExxxFihAA-iWN-3" target="m-OdGlbExxxFihAA-iWN-6">
          <mxGeometry width="50" height="50" relative="1" as="geometry">
            <mxPoint x="400" y="320" as="sourcePoint" />
            <mxPoint x="450" y="270" as="targetPoint" />
          </mxGeometry>
        </mxCell>
        <mxCell id="m-OdGlbExxxFihAA-iWN-26" value="" style="endArrow=classic;html=1;rounded=0;entryX=0;entryY=0.5;entryDx=0;entryDy=0;exitX=1;exitY=0.5;exitDx=0;exitDy=0;dashed=1;" edge="1" parent="1" source="m-OdGlbExxxFihAA-iWN-1" target="m-OdGlbExxxFihAA-iWN-2">
          <mxGeometry width="50" height="50" relative="1" as="geometry">
            <mxPoint x="400" y="320" as="sourcePoint" />
            <mxPoint x="450" y="270" as="targetPoint" />
          </mxGeometry>
        </mxCell>
        <mxCell id="m-OdGlbExxxFihAA-iWN-29" value="" style="endArrow=classic;html=1;rounded=0;dashed=1;entryX=0;entryY=0.5;entryDx=0;entryDy=0;exitX=1;exitY=0.5;exitDx=0;exitDy=0;" edge="1" parent="1" source="m-OdGlbExxxFihAA-iWN-2" target="m-OdGlbExxxFihAA-iWN-6">
          <mxGeometry width="50" height="50" relative="1" as="geometry">
            <mxPoint x="400" y="290" as="sourcePoint" />
            <mxPoint x="450" y="240" as="targetPoint" />
          </mxGeometry>
        </mxCell>
      </root>
    </mxGraphModel>
  </diagram>
</mxfile>
